<svg width="1721" height="426" viewBox="0 0 1721 426" fill="none" xmlns="http://www.w3.org/2000/svg">
<g clip-path="url(#clip0)">
<path d="M1266.99 137.228C1268.32 132.152 1268.86 126.274 1268.86 121.198C1268.86 90.2077 1246.68 73.911 1214.09 73.911C1184.43 73.911 1161.46 90.742 1154.78 125.473L1127.26 267.067H1153.18L1170.81 176.5H1242.94L1247.22 153.257H1175.35L1180.16 127.877C1184.17 106.772 1196.72 97.421 1213.02 97.421C1230.92 97.421 1243.21 105.703 1243.21 124.137C1243.21 127.343 1242.94 131.884 1241.34 137.228H1266.99ZM1304.74 135.09H1279.09L1266.8 197.873C1265.73 203.216 1264.93 209.628 1264.93 215.772C1264.93 251.572 1291.11 270.54 1325.58 270.54C1360.84 270.54 1387.02 250.236 1394.77 210.429L1409.46 135.09H1383.82L1369.39 208.025C1364.31 234.206 1348.28 247.03 1326.64 247.03C1305.27 247.03 1290.84 234.741 1290.84 213.368C1290.84 208.559 1291.65 203.216 1292.18 200.544L1304.74 135.09ZM1514.71 267.067H1540.35L1552.64 204.285C1553.71 198.941 1554.51 192.53 1554.51 186.385C1554.51 150.586 1528.07 131.617 1493.87 131.617C1458.34 131.617 1432.42 151.921 1424.67 191.728L1409.98 267.067H1435.63L1450.05 194.133C1455.13 167.951 1471.16 155.127 1492.8 155.127C1514.17 155.127 1528.6 167.417 1528.6 188.789C1528.6 193.598 1527.8 198.941 1527.26 201.613L1514.71 267.067ZM1639.72 270.54C1673.65 270.54 1701.7 250.503 1711.85 219.245H1686.21C1677.66 236.611 1661.36 247.03 1641.86 247.03C1614.88 247.03 1598.85 230.199 1598.85 207.223C1598.85 179.439 1619.42 155.127 1648.54 155.127C1669.91 155.127 1684.87 166.081 1689.68 182.912H1715.86C1711.05 151.12 1683.8 131.617 1650.14 131.617C1606.86 131.617 1572.93 165.814 1572.93 209.093C1572.93 243.824 1599.11 270.54 1639.72 270.54Z" fill="#82A8FF"/>
<path d="M628.832 138.636C628.832 160.278 621.988 176.648 608.3 187.746C594.797 198.66 576.3 204.116 552.809 204.116H531.722V268.209H486.219V75.9313H546.705C573.341 75.9313 593.688 81.203 607.745 91.7463C621.803 102.105 628.832 117.735 628.832 138.636ZM582.219 138.636C582.219 118.475 570.659 108.394 547.537 108.394H531.722V171.376H549.757C560.115 171.376 568.069 168.694 573.618 163.33C579.352 157.966 582.219 149.735 582.219 138.636Z" fill="#252526"/>
<path d="M688.836 231.325C688.836 237.462 689.915 241.858 692.071 244.512C694.393 247 697.793 248.244 702.272 248.244C706.253 248.244 710.316 247 714.463 244.512C718.61 241.858 722.01 238.292 724.664 233.813V141.011H763.974V273.124H729.64L727.898 257.698C723.586 264.001 717.78 268.894 710.482 272.377C703.184 275.695 695.471 277.353 687.344 277.353C674.904 277.353 665.449 273.787 658.98 266.655C652.677 259.357 649.526 249.239 649.526 236.301V141.011H688.836V231.325ZM899.474 137.03C907.435 137.03 914.733 138.357 921.368 141.011L914.153 196.244H889.273V172.111C881.975 173.272 875.506 177.17 869.866 183.804C864.227 190.439 859.831 198.815 856.68 208.933V246.751H882.804V273.124H799.953V246.751H817.369V167.135H799.953V141.011H847.474L854.441 170.618C859.251 159.339 865.305 150.963 872.603 145.489C879.901 139.849 888.858 137.03 899.474 137.03ZM981.978 218.636C984.466 238.706 995.082 248.741 1013.82 248.741C1025.1 248.741 1036.38 245.092 1047.66 237.794L1063.34 259.191C1056.87 264.83 1049.15 269.309 1040.2 272.626C1031.24 275.778 1021.37 277.353 1010.59 277.353C995.828 277.353 983.305 274.451 973.021 268.645C962.738 262.674 954.942 254.464 949.634 244.014C944.492 233.399 941.921 221.124 941.921 207.192C941.921 193.922 944.409 181.98 949.385 171.364C954.527 160.583 961.908 152.124 971.529 145.987C981.315 139.684 992.925 136.532 1006.36 136.532C1018.97 136.532 1029.91 139.269 1039.2 144.743C1048.49 150.05 1055.62 157.846 1060.6 168.13C1065.74 178.248 1068.31 190.356 1068.31 204.455C1068.31 209.928 1068.06 214.656 1067.57 218.636H981.978ZM1006.36 162.905C999.228 162.905 993.506 165.559 989.193 170.867C984.881 176.009 982.31 183.97 981.481 194.752H1030C1029.67 173.521 1021.79 162.905 1006.36 162.905Z" fill="#252526"/>
</g>
<circle cx="175" cy="175" r="175" fill="#81A6FC"/>
<path d="M159.254 277.273C259.182 217.745 258.811 130.4 157.954 72.7271C336.966 126.135 336.085 205.864 159.254 277.273Z" fill="white"/>
<path d="M182.955 112.5C93.3885 148.629 92.2712 200.402 182.396 235.227C16.9703 212.824 15.793 128.341 182.955 112.5Z" fill="white"/>
<defs>
<clipPath id="clip0">
<rect width="1721" height="404.318" fill="white" transform="translate(0 21)"/>
</clipPath>
</defs>
</svg>
