<svg width="748" height="245" viewBox="0 0 748 245" fill="none" xmlns="http://www.w3.org/2000/svg">
<circle cx="625.362" cy="122.5" r="122.5" fill="#81A6FC"/>
<path d="M614.34 194.091C684.29 152.421 684.029 91.2804 613.43 50.9091C738.738 88.2946 738.121 144.105 614.34 194.091Z" fill="white"/>
<path d="M630.931 78.75C568.234 104.04 567.452 140.281 630.54 164.659C514.741 148.977 513.917 89.8385 630.931 78.75Z" fill="white"/>
<path d="M122.5 245C190.155 245 245 190.155 245 122.5C245 54.8451 190.155 0 122.5 0C54.8451 0 0 54.8451 0 122.5C0 190.155 54.8451 245 122.5 245Z" fill="#663399"/>
<path d="M54.25 190.75C35.875 172.375 26.25 147.875 26.25 124.25L121.625 218.75C97.125 217.875 72.625 209.125 54.25 190.75Z" fill="white"/>
<path d="M143.498 216.125L28.873 101.5C38.498 58.625 76.998 26.25 122.498 26.25C154.873 26.25 182.873 42 200.373 65.625L187.248 77C172.373 56.875 148.748 43.75 122.498 43.75C88.373 43.75 59.498 65.625 48.123 96.25L148.748 196.875C174.123 188.125 193.373 166.25 199.498 140H157.498V122.5H218.748C218.748 168 186.373 206.5 143.498 216.125Z" fill="white"/>
<line x1="370.825" y1="100.713" x2="370.825" y2="147.35" stroke="black" stroke-width="14" stroke-linecap="round" stroke-linejoin="round"/>
<line x1="393.125" y1="125.05" x2="346.487" y2="125.05" stroke="black" stroke-width="14" stroke-linecap="round" stroke-linejoin="round"/>
</svg>
