<svg width="1155" height="1155" viewBox="0 0 1155 1155" fill="none" xmlns="http://www.w3.org/2000/svg">
<path d="M455 70H420V105H455V70Z" fill="rgba(178, 178, 178, 0.04)"/>
<path d="M525 70H490V105H525V70Z" fill="rgba(178, 178, 178, 0.04)"/>
<path d="M595 70H560V105H595V70Z" fill="rgba(178, 178, 178, 0.04)"/>
<path d="M630 70H595V105H630V70Z" fill="rgba(178, 178, 178, 0.04)"/>
<path d="M700 70H665V105H700V70Z" fill="rgba(178, 178, 178, 0.04)"/>
<path d="M735 70H700V105H735V70Z" fill="rgba(178, 178, 178, 0.04)"/>
<path d="M770 70H735V105H770V70Z" fill="rgba(178, 178, 178, 0.04)"/>
<path d="M805 70H770V105H805V70Z" fill="rgba(178, 178, 178, 0.04)"/>
<path d="M420 105H385V140H420V105Z" fill="rgba(178, 178, 178, 0.04)"/>
<path d="M455 105H420V140H455V105Z" fill="rgba(178, 178, 178, 0.04)"/>
<path d="M490 105H455V140H490V105Z" fill="rgba(178, 178, 178, 0.04)"/>
<path d="M560 105H525V140H560V105Z" fill="rgba(178, 178, 178, 0.04)"/>
<path d="M630 105H595V140H630V105Z" fill="rgba(178, 178, 178, 0.04)"/>
<path d="M735 105H700V140H735V105Z" fill="rgba(178, 178, 178, 0.04)"/>
<path d="M805 105H770V140H805V105Z" fill="rgba(178, 178, 178, 0.04)"/>
<path d="M420 140H385V175H420V140Z" fill="rgba(178, 178, 178, 0.04)"/>
<path d="M490 140H455V175H490V140Z" fill="rgba(178, 178, 178, 0.04)"/>
<path d="M595 140H560V175H595V140Z" fill="rgba(178, 178, 178, 0.04)"/>
<path d="M665 140H630V175H665V140Z" fill="rgba(178, 178, 178, 0.04)"/>
<path d="M700 140H665V175H700V140Z" fill="rgba(178, 178, 178, 0.04)"/>
<path d="M805 140H770V175H805V140Z" fill="rgba(178, 178, 178, 0.04)"/>
<path d="M420 175H385V210H420V175Z" fill="rgba(178, 178, 178, 0.04)"/>
<path d="M525 175H490V210H525V175Z" fill="rgba(178, 178, 178, 0.04)"/>
<path d="M560 175H525V210H560V175Z" fill="rgba(178, 178, 178, 0.04)"/>
<path d="M735 175H700V210H735V175Z" fill="rgba(178, 178, 178, 0.04)"/>
<path d="M420 210H385V245H420V210Z" fill="rgba(178, 178, 178, 0.04)"/>
<path d="M595 210H560V245H595V210Z" fill="rgba(178, 178, 178, 0.04)"/>
<path d="M630 210H595V245H630V210Z" fill="rgba(178, 178, 178, 0.04)"/>
<path d="M665 210H630V245H665V210Z" fill="rgba(178, 178, 178, 0.04)"/>
<path d="M735 210H700V245H735V210Z" fill="rgba(178, 178, 178, 0.04)"/>
<path d="M385 245H350V280H385V245Z" fill="rgba(178, 178, 178, 0.04)"/>
<path d="M525 245H490V280H525V245Z" fill="rgba(178, 178, 178, 0.04)"/>
<path d="M630 245H595V280H630V245Z" fill="rgba(178, 178, 178, 0.04)"/>
<path d="M665 245H630V280H665V245Z" fill="rgba(178, 178, 178, 0.04)"/>
<path d="M735 245H700V280H735V245Z" fill="rgba(178, 178, 178, 0.04)"/>
<path d="M770 245H735V280H770V245Z" fill="rgba(178, 178, 178, 0.04)"/>
<path d="M385 280H350V315H385V280Z" fill="rgba(178, 178, 178, 0.04)"/>
<path d="M455 280H420V315H455V280Z" fill="rgba(178, 178, 178, 0.04)"/>
<path d="M525 280H490V315H525V280Z" fill="rgba(178, 178, 178, 0.04)"/>
<path d="M595 280H560V315H595V280Z" fill="rgba(178, 178, 178, 0.04)"/>
<path d="M665 280H630V315H665V280Z" fill="rgba(178, 178, 178, 0.04)"/>
<path d="M735 280H700V315H735V280Z" fill="rgba(178, 178, 178, 0.04)"/>
<path d="M805 280H770V315H805V280Z" fill="rgba(178, 178, 178, 0.04)"/>
<path d="M420 315H385V350H420V315Z" fill="rgba(178, 178, 178, 0.04)"/>
<path d="M455 315H420V350H455V315Z" fill="rgba(178, 178, 178, 0.04)"/>
<path d="M525 315H490V350H525V315Z" fill="rgba(178, 178, 178, 0.04)"/>
<path d="M560 315H525V350H560V315Z" fill="rgba(178, 178, 178, 0.04)"/>
<path d="M665 315H630V350H665V315Z" fill="rgba(178, 178, 178, 0.04)"/>
<path d="M700 315H665V350H700V315Z" fill="rgba(178, 178, 178, 0.04)"/>
<path d="M735 315H700V350H735V315Z" fill="rgba(178, 178, 178, 0.04)"/>
<path d="M770 315H735V350H770V315Z" fill="rgba(178, 178, 178, 0.04)"/>
<path d="M805 315H770V350H805V315Z" fill="rgba(178, 178, 178, 0.04)"/>
<path d="M105 350H70V385H105V350Z" fill="rgba(178, 178, 178, 0.04)"/>
<path d="M210 350H175V385H210V350Z" fill="rgba(178, 178, 178, 0.04)"/>
<path d="M280 350H245V385H280V350Z" fill="rgba(178, 178, 178, 0.04)"/>
<path d="M315 350H280V385H315V350Z" fill="rgba(178, 178, 178, 0.04)"/>
<path d="M385 350H350V385H385V350Z" fill="rgba(178, 178, 178, 0.04)"/>
<path d="M455 350H420V385H455V350Z" fill="rgba(178, 178, 178, 0.04)"/>
<path d="M490 350H455V385H490V350Z" fill="rgba(178, 178, 178, 0.04)"/>
<path d="M595 350H560V385H595V350Z" fill="rgba(178, 178, 178, 0.04)"/>
<path d="M770 350H735V385H770V350Z" fill="rgba(178, 178, 178, 0.04)"/>
<path d="M840 350H805V385H840V350Z" fill="rgba(178, 178, 178, 0.04)"/>
<path d="M910 350H875V385H910V350Z" fill="rgba(178, 178, 178, 0.04)"/>
<path d="M140 385H105V420H140V385Z" fill="rgba(178, 178, 178, 0.04)"/>
<path d="M175 385H140V420H175V385Z" fill="rgba(178, 178, 178, 0.04)"/>
<path d="M490 385H455V420H490V385Z" fill="rgba(178, 178, 178, 0.04)"/>
<path d="M560 385H525V420H560V385Z" fill="rgba(178, 178, 178, 0.04)"/>
<path d="M665 385H630V420H665V385Z" fill="rgba(178, 178, 178, 0.04)"/>
<path d="M735 385H700V420H735V385Z" fill="rgba(178, 178, 178, 0.04)"/>
<path d="M805 385H770V420H805V385Z" fill="rgba(178, 178, 178, 0.04)"/>
<path d="M840 385H805V420H840V385Z" fill="rgba(178, 178, 178, 0.04)"/>
<path d="M875 385H840V420H875V385Z" fill="rgba(178, 178, 178, 0.04)"/>
<path d="M980 385H945V420H980V385Z" fill="rgba(178, 178, 178, 0.04)"/>
<path d="M1085 385H1050V420H1085V385Z" fill="rgba(178, 178, 178, 0.04)"/>
<path d="M140 420H105V455H140V420Z" fill="rgba(178, 178, 178, 0.04)"/>
<path d="M175 420H140V455H175V420Z" fill="rgba(178, 178, 178, 0.04)"/>
<path d="M210 420H175V455H210V420Z" fill="rgba(178, 178, 178, 0.04)"/>
<path d="M245 420H210V455H245V420Z" fill="rgba(178, 178, 178, 0.04)"/>
<path d="M280 420H245V455H280V420Z" fill="rgba(178, 178, 178, 0.04)"/>
<path d="M315 420H280V455H315V420Z" fill="rgba(178, 178, 178, 0.04)"/>
<path d="M385 420H350V455H385V420Z" fill="rgba(178, 178, 178, 0.04)"/>
<path d="M420 420H385V455H420V420Z" fill="rgba(178, 178, 178, 0.04)"/>
<path d="M490 420H455V455H490V420Z" fill="rgba(178, 178, 178, 0.04)"/>
<path d="M525 420H490V455H525V420Z" fill="rgba(178, 178, 178, 0.04)"/>
<path d="M560 420H525V455H560V420Z" fill="rgba(178, 178, 178, 0.04)"/>
<path d="M595 420H560V455H595V420Z" fill="rgba(178, 178, 178, 0.04)"/>
<path d="M665 420H630V455H665V420Z" fill="rgba(178, 178, 178, 0.04)"/>
<path d="M735 420H700V455H735V420Z" fill="rgba(178, 178, 178, 0.04)"/>
<path d="M770 420H735V455H770V420Z" fill="rgba(178, 178, 178, 0.04)"/>
<path d="M840 420H805V455H840V420Z" fill="rgba(178, 178, 178, 0.04)"/>
<path d="M875 420H840V455H875V420Z" fill="rgba(178, 178, 178, 0.04)"/>
<path d="M910 420H875V455H910V420Z" fill="rgba(178, 178, 178, 0.04)"/>
<path d="M945 420H910V455H945V420Z" fill="rgba(178, 178, 178, 0.04)"/>
<path d="M980 420H945V455H980V420Z" fill="rgba(178, 178, 178, 0.04)"/>
<path d="M1015 420H980V455H1015V420Z" fill="rgba(178, 178, 178, 0.04)"/>
<path d="M1050 420H1015V455H1050V420Z" fill="rgba(178, 178, 178, 0.04)"/>
<path d="M140 455H105V490H140V455Z" fill="rgba(178, 178, 178, 0.04)"/>
<path d="M175 455H140V490H175V455Z" fill="rgba(178, 178, 178, 0.04)"/>
<path d="M245 455H210V490H245V455Z" fill="rgba(178, 178, 178, 0.04)"/>
<path d="M280 455H245V490H280V455Z" fill="rgba(178, 178, 178, 0.04)"/>
<path d="M350 455H315V490H350V455Z" fill="rgba(178, 178, 178, 0.04)"/>
<path d="M385 455H350V490H385V455Z" fill="rgba(178, 178, 178, 0.04)"/>
<path d="M420 455H385V490H420V455Z" fill="rgba(178, 178, 178, 0.04)"/>
<path d="M455 455H420V490H455V455Z" fill="rgba(178, 178, 178, 0.04)"/>
<path d="M490 455H455V490H490V455Z" fill="rgba(178, 178, 178, 0.04)"/>
<path d="M525 455H490V490H525V455Z" fill="rgba(178, 178, 178, 0.04)"/>
<path d="M560 455H525V490H560V455Z" fill="rgba(178, 178, 178, 0.04)"/>
<path d="M630 455H595V490H630V455Z" fill="rgba(178, 178, 178, 0.04)"/>
<path d="M805 455H770V490H805V455Z" fill="rgba(178, 178, 178, 0.04)"/>
<path d="M910 455H875V490H910V455Z" fill="rgba(178, 178, 178, 0.04)"/>
<path d="M1015 455H980V490H1015V455Z" fill="rgba(178, 178, 178, 0.04)"/>
<path d="M1050 455H1015V490H1050V455Z" fill="rgba(178, 178, 178, 0.04)"/>
<path d="M140 490H105V525H140V490Z" fill="rgba(178, 178, 178, 0.04)"/>
<path d="M210 490H175V525H210V490Z" fill="rgba(178, 178, 178, 0.04)"/>
<path d="M280 490H245V525H280V490Z" fill="rgba(178, 178, 178, 0.04)"/>
<path d="M315 490H280V525H315V490Z" fill="rgba(178, 178, 178, 0.04)"/>
<path d="M350 490H315V525H350V490Z" fill="rgba(178, 178, 178, 0.04)"/>
<path d="M385 490H350V525H385V490Z" fill="rgba(178, 178, 178, 0.04)"/>
<path d="M420 490H385V525H420V490Z" fill="rgba(178, 178, 178, 0.04)"/>
<path d="M490 490H455V525H490V490Z" fill="rgba(178, 178, 178, 0.04)"/>
<path d="M525 490H490V525H525V490Z" fill="rgba(178, 178, 178, 0.04)"/>
<path d="M595 490H560V525H595V490Z" fill="rgba(178, 178, 178, 0.04)"/>
<path d="M665 490H630V525H665V490Z" fill="rgba(178, 178, 178, 0.04)"/>
<path d="M700 490H665V525H700V490Z" fill="rgba(178, 178, 178, 0.04)"/>
<path d="M805 490H770V525H805V490Z" fill="rgba(178, 178, 178, 0.04)"/>
<path d="M840 490H805V525H840V490Z" fill="rgba(178, 178, 178, 0.04)"/>
<path d="M875 490H840V525H875V490Z" fill="rgba(178, 178, 178, 0.04)"/>
<path d="M980 490H945V525H980V490Z" fill="rgba(178, 178, 178, 0.04)"/>
<path d="M1050 490H1015V525H1050V490Z" fill="rgba(178, 178, 178, 0.04)"/>
<path d="M1085 490H1050V525H1085V490Z" fill="rgba(178, 178, 178, 0.04)"/>
<path d="M105 525H70V560H105V525Z" fill="rgba(178, 178, 178, 0.04)"/>
<path d="M140 525H105V560H140V525Z" fill="rgba(178, 178, 178, 0.04)"/>
<path d="M210 525H175V560H210V525Z" fill="rgba(178, 178, 178, 0.04)"/>
<path d="M245 525H210V560H245V525Z" fill="rgba(178, 178, 178, 0.04)"/>
<path d="M280 525H245V560H280V525Z" fill="rgba(178, 178, 178, 0.04)"/>
<path d="M350 525H315V560H350V525Z" fill="rgba(178, 178, 178, 0.04)"/>
<path d="M385 525H350V560H385V525Z" fill="rgba(178, 178, 178, 0.04)"/>
<path d="M420 525H385V560H420V525Z" fill="rgba(178, 178, 178, 0.04)"/>
<path d="M560 525H525V560H560V525Z" fill="rgba(178, 178, 178, 0.04)"/>
<path d="M595 525H560V560H595V525Z" fill="rgba(178, 178, 178, 0.04)"/>
<path d="M700 525H665V560H700V525Z" fill="rgba(178, 178, 178, 0.04)"/>
<path d="M770 525H735V560H770V525Z" fill="rgba(178, 178, 178, 0.04)"/>
<path d="M805 525H770V560H805V525Z" fill="rgba(178, 178, 178, 0.04)"/>
<path d="M140 560H105V595H140V560Z" fill="rgba(178, 178, 178, 0.04)"/>
<path d="M210 560H175V595H210V560Z" fill="rgba(178, 178, 178, 0.04)"/>
<path d="M245 560H210V595H245V560Z" fill="rgba(178, 178, 178, 0.04)"/>
<path d="M315 560H280V595H315V560Z" fill="rgba(178, 178, 178, 0.04)"/>
<path d="M385 560H350V595H385V560Z" fill="rgba(178, 178, 178, 0.04)"/>
<path d="M490 560H455V595H490V560Z" fill="rgba(178, 178, 178, 0.04)"/>
<path d="M560 560H525V595H560V560Z" fill="rgba(178, 178, 178, 0.04)"/>
<path d="M595 560H560V595H595V560Z" fill="rgba(178, 178, 178, 0.04)"/>
<path d="M665 560H630V595H665V560Z" fill="rgba(178, 178, 178, 0.04)"/>
<path d="M700 560H665V595H700V560Z" fill="rgba(178, 178, 178, 0.04)"/>
<path d="M735 560H700V595H735V560Z" fill="rgba(178, 178, 178, 0.04)"/>
<path d="M910 560H875V595H910V560Z" fill="rgba(178, 178, 178, 0.04)"/>
<path d="M945 560H910V595H945V560Z" fill="rgba(178, 178, 178, 0.04)"/>
<path d="M980 560H945V595H980V560Z" fill="rgba(178, 178, 178, 0.04)"/>
<path d="M1015 560H980V595H1015V560Z" fill="rgba(178, 178, 178, 0.04)"/>
<path d="M1050 560H1015V595H1050V560Z" fill="rgba(178, 178, 178, 0.04)"/>
<path d="M1085 560H1050V595H1085V560Z" fill="rgba(178, 178, 178, 0.04)"/>
<path d="M105 595H70V630H105V595Z" fill="rgba(178, 178, 178, 0.04)"/>
<path d="M140 595H105V630H140V595Z" fill="rgba(178, 178, 178, 0.04)"/>
<path d="M210 595H175V630H210V595Z" fill="rgba(178, 178, 178, 0.04)"/>
<path d="M245 595H210V630H245V595Z" fill="rgba(178, 178, 178, 0.04)"/>
<path d="M385 595H350V630H385V595Z" fill="rgba(178, 178, 178, 0.04)"/>
<path d="M455 595H420V630H455V595Z" fill="rgba(178, 178, 178, 0.04)"/>
<path d="M525 595H490V630H525V595Z" fill="rgba(178, 178, 178, 0.04)"/>
<path d="M700 595H665V630H700V595Z" fill="rgba(178, 178, 178, 0.04)"/>
<path d="M735 595H700V630H735V595Z" fill="rgba(178, 178, 178, 0.04)"/>
<path d="M805 595H770V630H805V595Z" fill="rgba(178, 178, 178, 0.04)"/>
<path d="M980 595H945V630H980V595Z" fill="rgba(178, 178, 178, 0.04)"/>
<path d="M1050 595H1015V630H1050V595Z" fill="rgba(178, 178, 178, 0.04)"/>
<path d="M105 630H70V665H105V630Z" fill="rgba(178, 178, 178, 0.04)"/>
<path d="M140 630H105V665H140V630Z" fill="rgba(178, 178, 178, 0.04)"/>
<path d="M245 630H210V665H245V630Z" fill="rgba(178, 178, 178, 0.04)"/>
<path d="M280 630H245V665H280V630Z" fill="rgba(178, 178, 178, 0.04)"/>
<path d="M315 630H280V665H315V630Z" fill="rgba(178, 178, 178, 0.04)"/>
<path d="M385 630H350V665H385V630Z" fill="rgba(178, 178, 178, 0.04)"/>
<path d="M455 630H420V665H455V630Z" fill="rgba(178, 178, 178, 0.04)"/>
<path d="M560 630H525V665H560V630Z" fill="rgba(178, 178, 178, 0.04)"/>
<path d="M700 630H665V665H700V630Z" fill="rgba(178, 178, 178, 0.04)"/>
<path d="M805 630H770V665H805V630Z" fill="rgba(178, 178, 178, 0.04)"/>
<path d="M840 630H805V665H840V630Z" fill="rgba(178, 178, 178, 0.04)"/>
<path d="M1050 630H1015V665H1050V630Z" fill="rgba(178, 178, 178, 0.04)"/>
<path d="M140 665H105V700H140V665Z" fill="rgba(178, 178, 178, 0.04)"/>
<path d="M175 665H140V700H175V665Z" fill="rgba(178, 178, 178, 0.04)"/>
<path d="M210 665H175V700H210V665Z" fill="rgba(178, 178, 178, 0.04)"/>
<path d="M280 665H245V700H280V665Z" fill="rgba(178, 178, 178, 0.04)"/>
<path d="M350 665H315V700H350V665Z" fill="rgba(178, 178, 178, 0.04)"/>
<path d="M525 665H490V700H525V665Z" fill="rgba(178, 178, 178, 0.04)"/>
<path d="M560 665H525V700H560V665Z" fill="rgba(178, 178, 178, 0.04)"/>
<path d="M595 665H560V700H595V665Z" fill="rgba(178, 178, 178, 0.04)"/>
<path d="M665 665H630V700H665V665Z" fill="rgba(178, 178, 178, 0.04)"/>
<path d="M700 665H665V700H700V665Z" fill="rgba(178, 178, 178, 0.04)"/>
<path d="M805 665H770V700H805V665Z" fill="rgba(178, 178, 178, 0.04)"/>
<path d="M840 665H805V700H840V665Z" fill="rgba(178, 178, 178, 0.04)"/>
<path d="M875 665H840V700H875V665Z" fill="rgba(178, 178, 178, 0.04)"/>
<path d="M910 665H875V700H910V665Z" fill="rgba(178, 178, 178, 0.04)"/>
<path d="M980 665H945V700H980V665Z" fill="rgba(178, 178, 178, 0.04)"/>
<path d="M1085 665H1050V700H1085V665Z" fill="rgba(178, 178, 178, 0.04)"/>
<path d="M105 700H70V735H105V700Z" fill="rgba(178, 178, 178, 0.04)"/>
<path d="M245 700H210V735H245V700Z" fill="rgba(178, 178, 178, 0.04)"/>
<path d="M280 700H245V735H280V700Z" fill="rgba(178, 178, 178, 0.04)"/>
<path d="M315 700H280V735H315V700Z" fill="rgba(178, 178, 178, 0.04)"/>
<path d="M455 700H420V735H455V700Z" fill="rgba(178, 178, 178, 0.04)"/>
<path d="M490 700H455V735H490V700Z" fill="rgba(178, 178, 178, 0.04)"/>
<path d="M525 700H490V735H525V700Z" fill="rgba(178, 178, 178, 0.04)"/>
<path d="M595 700H560V735H595V700Z" fill="rgba(178, 178, 178, 0.04)"/>
<path d="M840 700H805V735H840V700Z" fill="rgba(178, 178, 178, 0.04)"/>
<path d="M910 700H875V735H910V700Z" fill="rgba(178, 178, 178, 0.04)"/>
<path d="M1050 700H1015V735H1050V700Z" fill="rgba(178, 178, 178, 0.04)"/>
<path d="M1085 700H1050V735H1085V700Z" fill="rgba(178, 178, 178, 0.04)"/>
<path d="M175 735H140V770H175V735Z" fill="rgba(178, 178, 178, 0.04)"/>
<path d="M210 735H175V770H210V735Z" fill="rgba(178, 178, 178, 0.04)"/>
<path d="M245 735H210V770H245V735Z" fill="rgba(178, 178, 178, 0.04)"/>
<path d="M280 735H245V770H280V735Z" fill="rgba(178, 178, 178, 0.04)"/>
<path d="M350 735H315V770H350V735Z" fill="rgba(178, 178, 178, 0.04)"/>
<path d="M385 735H350V770H385V735Z" fill="rgba(178, 178, 178, 0.04)"/>
<path d="M420 735H385V770H420V735Z" fill="rgba(178, 178, 178, 0.04)"/>
<path d="M455 735H420V770H455V735Z" fill="rgba(178, 178, 178, 0.04)"/>
<path d="M525 735H490V770H525V735Z" fill="rgba(178, 178, 178, 0.04)"/>
<path d="M595 735H560V770H595V735Z" fill="rgba(178, 178, 178, 0.04)"/>
<path d="M700 735H665V770H700V735Z" fill="rgba(178, 178, 178, 0.04)"/>
<path d="M735 735H700V770H735V735Z" fill="rgba(178, 178, 178, 0.04)"/>
<path d="M805 735H770V770H805V735Z" fill="rgba(178, 178, 178, 0.04)"/>
<path d="M875 735H840V770H875V735Z" fill="rgba(178, 178, 178, 0.04)"/>
<path d="M945 735H910V770H945V735Z" fill="rgba(178, 178, 178, 0.04)"/>
<path d="M1050 735H1015V770H1050V735Z" fill="rgba(178, 178, 178, 0.04)"/>
<path d="M1085 735H1050V770H1085V735Z" fill="rgba(178, 178, 178, 0.04)"/>
<path d="M105 770H70V805H105V770Z" fill="rgba(178, 178, 178, 0.04)"/>
<path d="M175 770H140V805H175V770Z" fill="rgba(178, 178, 178, 0.04)"/>
<path d="M210 770H175V805H210V770Z" fill="rgba(178, 178, 178, 0.04)"/>
<path d="M280 770H245V805H280V770Z" fill="rgba(178, 178, 178, 0.04)"/>
<path d="M315 770H280V805H315V770Z" fill="rgba(178, 178, 178, 0.04)"/>
<path d="M350 770H315V805H350V770Z" fill="rgba(178, 178, 178, 0.04)"/>
<path d="M490 770H455V805H490V770Z" fill="rgba(178, 178, 178, 0.04)"/>
<path d="M525 770H490V805H525V770Z" fill="rgba(178, 178, 178, 0.04)"/>
<path d="M630 770H595V805H630V770Z" fill="rgba(178, 178, 178, 0.04)"/>
<path d="M665 770H630V805H665V770Z" fill="rgba(178, 178, 178, 0.04)"/>
<path d="M805 770H770V805H805V770Z" fill="rgba(178, 178, 178, 0.04)"/>
<path d="M840 770H805V805H840V770Z" fill="rgba(178, 178, 178, 0.04)"/>
<path d="M875 770H840V805H875V770Z" fill="rgba(178, 178, 178, 0.04)"/>
<path d="M910 770H875V805H910V770Z" fill="rgba(178, 178, 178, 0.04)"/>
<path d="M945 770H910V805H945V770Z" fill="rgba(178, 178, 178, 0.04)"/>
<path d="M1015 770H980V805H1015V770Z" fill="rgba(178, 178, 178, 0.04)"/>
<path d="M385 805H350V840H385V805Z" fill="rgba(178, 178, 178, 0.04)"/>
<path d="M420 805H385V840H420V805Z" fill="rgba(178, 178, 178, 0.04)"/>
<path d="M455 805H420V840H455V805Z" fill="rgba(178, 178, 178, 0.04)"/>
<path d="M490 805H455V840H490V805Z" fill="rgba(178, 178, 178, 0.04)"/>
<path d="M595 805H560V840H595V805Z" fill="rgba(178, 178, 178, 0.04)"/>
<path d="M700 805H665V840H700V805Z" fill="rgba(178, 178, 178, 0.04)"/>
<path d="M735 805H700V840H735V805Z" fill="rgba(178, 178, 178, 0.04)"/>
<path d="M805 805H770V840H805V805Z" fill="rgba(178, 178, 178, 0.04)"/>
<path d="M945 805H910V840H945V805Z" fill="rgba(178, 178, 178, 0.04)"/>
<path d="M1015 805H980V840H1015V805Z" fill="rgba(178, 178, 178, 0.04)"/>
<path d="M1050 805H1015V840H1050V805Z" fill="rgba(178, 178, 178, 0.04)"/>
<path d="M1085 805H1050V840H1085V805Z" fill="rgba(178, 178, 178, 0.04)"/>
<path d="M455 840H420V875H455V840Z" fill="rgba(178, 178, 178, 0.04)"/>
<path d="M665 840H630V875H665V840Z" fill="rgba(178, 178, 178, 0.04)"/>
<path d="M735 840H700V875H735V840Z" fill="rgba(178, 178, 178, 0.04)"/>
<path d="M805 840H770V875H805V840Z" fill="rgba(178, 178, 178, 0.04)"/>
<path d="M875 840H840V875H875V840Z" fill="rgba(178, 178, 178, 0.04)"/>
<path d="M945 840H910V875H945V840Z" fill="rgba(178, 178, 178, 0.04)"/>
<path d="M1050 840H1015V875H1050V840Z" fill="rgba(178, 178, 178, 0.04)"/>
<path d="M385 875H350V910H385V875Z" fill="rgba(178, 178, 178, 0.04)"/>
<path d="M490 875H455V910H490V875Z" fill="rgba(178, 178, 178, 0.04)"/>
<path d="M525 875H490V910H525V875Z" fill="rgba(178, 178, 178, 0.04)"/>
<path d="M595 875H560V910H595V875Z" fill="rgba(178, 178, 178, 0.04)"/>
<path d="M805 875H770V910H805V875Z" fill="rgba(178, 178, 178, 0.04)"/>
<path d="M945 875H910V910H945V875Z" fill="rgba(178, 178, 178, 0.04)"/>
<path d="M980 875H945V910H980V875Z" fill="rgba(178, 178, 178, 0.04)"/>
<path d="M1015 875H980V910H1015V875Z" fill="rgba(178, 178, 178, 0.04)"/>
<path d="M420 910H385V945H420V910Z" fill="rgba(178, 178, 178, 0.04)"/>
<path d="M490 910H455V945H490V910Z" fill="rgba(178, 178, 178, 0.04)"/>
<path d="M700 910H665V945H700V910Z" fill="rgba(178, 178, 178, 0.04)"/>
<path d="M805 910H770V945H805V910Z" fill="rgba(178, 178, 178, 0.04)"/>
<path d="M840 910H805V945H840V910Z" fill="rgba(178, 178, 178, 0.04)"/>
<path d="M875 910H840V945H875V910Z" fill="rgba(178, 178, 178, 0.04)"/>
<path d="M910 910H875V945H910V910Z" fill="rgba(178, 178, 178, 0.04)"/>
<path d="M945 910H910V945H945V910Z" fill="rgba(178, 178, 178, 0.04)"/>
<path d="M1050 910H1015V945H1050V910Z" fill="rgba(178, 178, 178, 0.04)"/>
<path d="M1085 910H1050V945H1085V910Z" fill="rgba(178, 178, 178, 0.04)"/>
<path d="M385 945H350V980H385V945Z" fill="rgba(178, 178, 178, 0.04)"/>
<path d="M490 945H455V980H490V945Z" fill="rgba(178, 178, 178, 0.04)"/>
<path d="M525 945H490V980H525V945Z" fill="rgba(178, 178, 178, 0.04)"/>
<path d="M805 945H770V980H805V945Z" fill="rgba(178, 178, 178, 0.04)"/>
<path d="M875 945H840V980H875V945Z" fill="rgba(178, 178, 178, 0.04)"/>
<path d="M910 945H875V980H910V945Z" fill="rgba(178, 178, 178, 0.04)"/>
<path d="M945 945H910V980H945V945Z" fill="rgba(178, 178, 178, 0.04)"/>
<path d="M980 945H945V980H980V945Z" fill="rgba(178, 178, 178, 0.04)"/>
<path d="M1015 945H980V980H1015V945Z" fill="rgba(178, 178, 178, 0.04)"/>
<path d="M1050 945H1015V980H1050V945Z" fill="rgba(178, 178, 178, 0.04)"/>
<path d="M420 980H385V1015H420V980Z" fill="rgba(178, 178, 178, 0.04)"/>
<path d="M525 980H490V1015H525V980Z" fill="rgba(178, 178, 178, 0.04)"/>
<path d="M700 980H665V1015H700V980Z" fill="rgba(178, 178, 178, 0.04)"/>
<path d="M770 980H735V1015H770V980Z" fill="rgba(178, 178, 178, 0.04)"/>
<path d="M805 980H770V1015H805V980Z" fill="rgba(178, 178, 178, 0.04)"/>
<path d="M945 980H910V1015H945V980Z" fill="rgba(178, 178, 178, 0.04)"/>
<path d="M980 980H945V1015H980V980Z" fill="rgba(178, 178, 178, 0.04)"/>
<path d="M1015 980H980V1015H1015V980Z" fill="rgba(178, 178, 178, 0.04)"/>
<path d="M1085 980H1050V1015H1085V980Z" fill="rgba(178, 178, 178, 0.04)"/>
<path d="M455 1015H420V1050H455V1015Z" fill="rgba(178, 178, 178, 0.04)"/>
<path d="M595 1015H560V1050H595V1015Z" fill="rgba(178, 178, 178, 0.04)"/>
<path d="M630 1015H595V1050H630V1015Z" fill="rgba(178, 178, 178, 0.04)"/>
<path d="M665 1015H630V1050H665V1015Z" fill="rgba(178, 178, 178, 0.04)"/>
<path d="M700 1015H665V1050H700V1015Z" fill="rgba(178, 178, 178, 0.04)"/>
<path d="M770 1015H735V1050H770V1015Z" fill="rgba(178, 178, 178, 0.04)"/>
<path d="M805 1015H770V1050H805V1015Z" fill="rgba(178, 178, 178, 0.04)"/>
<path d="M945 1015H910V1050H945V1015Z" fill="rgba(178, 178, 178, 0.04)"/>
<path d="M1050 1015H1015V1050H1050V1015Z" fill="rgba(178, 178, 178, 0.04)"/>
<path d="M385 1050H350V1085H385V1050Z" fill="rgba(178, 178, 178, 0.04)"/>
<path d="M420 1050H385V1085H420V1050Z" fill="rgba(178, 178, 178, 0.04)"/>
<path d="M455 1050H420V1085H455V1050Z" fill="rgba(178, 178, 178, 0.04)"/>
<path d="M490 1050H455V1085H490V1050Z" fill="rgba(178, 178, 178, 0.04)"/>
<path d="M595 1050H560V1085H595V1050Z" fill="rgba(178, 178, 178, 0.04)"/>
<path d="M700 1050H665V1085H700V1050Z" fill="rgba(178, 178, 178, 0.04)"/>
<path d="M805 1050H770V1085H805V1050Z" fill="rgba(178, 178, 178, 0.04)"/>
<path d="M840 1050H805V1085H840V1050Z" fill="rgba(178, 178, 178, 0.04)"/>
<path d="M945 1050H910V1085H945V1050Z" fill="rgba(178, 178, 178, 0.04)"/>
<path d="M980 1050H945V1085H980V1050Z" fill="rgba(178, 178, 178, 0.04)"/>
<path d="M1050 1050H1015V1085H1050V1050Z" fill="rgba(178, 178, 178, 0.04)"/>
<path d="M278.25 70H106.75H70V106.75V278.25V315H106.75H278.25H315V278.25V106.75V70H278.25ZM278.25 278.25H106.75V106.75H278.25V278.25Z" fill="rgba(178, 178, 178, 0.04)"/>
<path d="M1048.25 70H876.75H840V106.75V278.25V315H876.75H1048.25H1085V278.25V106.75V70H1048.25ZM1048.25 278.25H876.75V106.75H1048.25V278.25Z" fill="rgba(178, 178, 178, 0.04)"/>
<path d="M278.25 840H106.75H70V876.75V1048.25V1085H106.75H278.25H315V1048.25V876.75V840H278.25ZM278.25 1048.25H106.75V876.75H278.25V1048.25Z" fill="rgba(178, 178, 178, 0.04)"/>
<path d="M245 140H140V245H245V140Z" fill="rgba(178, 178, 178, 0.04)"/>
<path d="M1015 140H910V245H1015V140Z" fill="rgba(178, 178, 178, 0.04)"/>
<path d="M245 910H140V1015H245V910Z" fill="rgba(178, 178, 178, 0.04)"/>
</svg>
