<svg width="119" height="107" viewBox="0 0 119 107" fill="none" xmlns="http://www.w3.org/2000/svg">
<path d="M47.0274 104.401L47.5278 104.592L48.0365 104.424L98.3158 87.7354L99.143 87.4608L99.3141 86.6063L115.998 3.29453L116.357 1.5H114.527H20.3489H19.1104L18.876 2.71617L15.2938 21.3054L14.9501 23.0892H16.7667H90.4149L88.6589 31.9579H14.3023H13.0712L12.8311 33.1654L9.13451 51.7546L8.77805 53.5471H10.6057H84.2643L80.6353 72.1736L51.5172 81.6981L26.8761 72.3697L28.4325 64.3153L28.7774 62.5307H26.9598H8.37056H7.13621L6.89861 63.7419L2.52805 86.023L2.28519 87.2611L3.46341 87.7125L47.0274 104.401Z" fill="#999999" stroke="white" stroke-width="3"/>
</svg>
