<svg width="76" height="108" viewBox="0 0 76 108" fill="none" xmlns="http://www.w3.org/2000/svg">
<path d="M54.6315 35.3334C44.3217 35.3334 35.9648 43.6902 35.9648 54C35.9648 64.3098 44.3217 72.6667 54.6315 72.6667C64.9413 72.6667 73.2981 64.3098 73.2981 54C73.2981 43.6902 64.9413 35.3334 54.6315 35.3334Z" fill="#CCCCCC" stroke="white" stroke-width="4"/>
<path d="M39.9651 70.6667V68.6667H37.9651H21.2985C10.9886 68.6667 2.63184 77.0236 2.63184 87.3334C2.63184 97.6432 10.9886 106 21.2985 106C31.6083 106 39.9651 97.6432 39.9651 87.3334V70.6667Z" fill="#BBBBBB" stroke="white" stroke-width="4"/>
<path d="M37.9648 2H35.9648V4V37.3333V39.3333H37.9648H54.6315C64.9413 39.3333 73.2981 30.9764 73.2981 20.6666C73.2981 10.3568 64.9413 2 54.6315 2H37.9648Z" fill="#CCCCCC" stroke="white" stroke-width="4"/>
<path d="M37.9651 39.3333H39.9651V37.3333V4V2H37.9651H21.2985C10.9887 2 2.63184 10.3568 2.63184 20.6666C2.63184 30.9764 10.9886 39.3333 21.2985 39.3333H37.9651Z" fill="#BBBBBB" stroke="white" stroke-width="4"/>
<path d="M37.9651 72.6667H39.9651V70.6667V37.3334V35.3334H37.9651H21.2985C10.9886 35.3334 2.63184 43.6902 2.63184 54C2.63184 64.3098 10.9886 72.6667 21.2985 72.6667H37.9651Z" fill="#999999" stroke="white" stroke-width="4"/>
<path d="M37.9648 54C37.9648 44.7948 45.4263 37.3334 54.6315 37.3334C63.8367 37.3334 71.2981 44.7948 71.2981 54C71.2981 63.2052 63.8367 70.6667 54.6315 70.6667C45.4263 70.6667 37.9648 63.2052 37.9648 54Z" fill="#CCCCCC"/>
<path d="M4.63184 87.3334C4.63184 78.1282 12.0932 70.6667 21.2985 70.6667H37.9651V87.3334C37.9651 96.5386 30.5037 104 21.2985 104C12.0932 104 4.63184 96.5386 4.63184 87.3334Z" fill="#BBBBBB"/>
<path d="M37.9648 4V37.3333H54.6315C63.8367 37.3333 71.2981 29.8719 71.2981 20.6666C71.2981 11.4614 63.8367 4 54.6315 4H37.9648Z" fill="#CCCCCC"/>
<path d="M4.63184 20.6666C4.63184 29.8719 12.0932 37.3333 21.2985 37.3333H37.9651V4H21.2985C12.0932 4 4.63184 11.4614 4.63184 20.6666Z" fill="#BBBBBB"/>
<path d="M4.63184 54C4.63184 63.2052 12.0932 70.6667 21.2985 70.6667H37.9651V37.3334H21.2985C12.0932 37.3334 4.63184 44.7948 4.63184 54Z" fill="#999999"/>
</svg>
