<svg width="78" height="108" viewBox="0 0 78 108" fill="none" xmlns="http://www.w3.org/2000/svg">
<path d="M8.60663 96.1013L8.69885 97.1356L9.69946 97.4134L38.632 105.445L39.033 105.557L39.434 105.446L68.4464 97.4021L69.4474 97.1246L69.5397 96.09L75.9942 23.7853L76.14 22.152H74.5001H3.65332H2.01364L2.15925 23.7852L8.60663 96.1013Z" fill="#CCCCCC" stroke="white" stroke-width="3"/>
<path d="M10.2451 2.5H8.74508L8.74512 4.00004L8.74544 17.4851L8.74548 18.985H10.2454H14.7523H16.2523V17.485V14.4695H17.3752V17.485V18.985H18.8752H23.3825H24.8825V17.485V9.97204H25.3423H27.8102V17.485V18.985H29.3102H33.8179H35.3179V17.485V9.97204H37.7876H38.2623V17.485V18.985H39.7623H44.1725H45.6725V17.485V15.8795L46.0163 16.4107L46.4597 17.0957H47.2756H47.3531H48.1693L48.6126 16.4103L48.9541 15.8823V17.485V18.985H50.4541H54.9435H55.6863H56.4435H57.1863H68.0336H69.5336V17.485V13.0278V11.5278H68.0336H63.1947V4V2.5H61.6947H57.1863H56.4435H55.6863H54.9435H50.2419H49.3995L48.961 3.21928L47.3529 5.85742L45.743 3.21874L45.3045 2.5H44.4625H39.7625H39.7623H39.2876H38.2623H37.7876H25.3423H24.8825H23.8423H23.3825H18.8752H17.3752V4V6.95304H16.2523V4V2.5H14.7523H10.2451Z" fill="#999999" stroke="white" stroke-width="3"/>
<path d="M39.0771 97.8523L62.5204 91.3526L68.0364 29.5653H39.0771V97.8523Z" fill="#BBBBBB"/>
<path d="M39.077 56.3857H27.3409L26.5302 47.3035H39.077V38.4341H16.8369L17.0495 40.8136L19.2293 65.2548H39.077V56.3857ZM39.077 79.4199L39.0381 79.4306L29.1604 76.7632L28.5289 69.6898H19.6257L20.8684 83.6158L39.0364 88.6593L39.077 88.6479V79.4199Z" fill="#EEEEEE"/>
<path d="M39.0469 56.3857V65.2548H49.9686L48.9389 76.7577L39.0469 79.4273V88.6547L57.2294 83.6158L57.3624 82.1169L59.4469 58.7674L59.6633 56.3857H57.2735H39.0469ZM39.0469 38.4341V47.3035H60.4705L60.6481 45.3098L61.0522 40.8136L61.2644 38.4341H39.0469Z" fill="white"/>
</svg>
