<svg width="109" height="108" viewBox="0 0 109 108" fill="none" xmlns="http://www.w3.org/2000/svg">
<path d="M106.272 4V2.02703H104.299H4.29883H2.32586V4V104V105.973H4.29883H104.299H106.272V104V4Z" fill="#CCCCCC" stroke="white" stroke-width="3.94595"/>
<path d="M71.4742 82.1264C73.4886 85.4153 76.1091 87.8326 80.744 87.8326C84.6378 87.8326 87.1252 85.8866 87.1252 83.1977C87.1252 79.9755 84.5695 78.8343 80.2838 76.9596L77.9346 75.9517C71.1537 73.0628 66.6489 69.4438 66.6489 61.793C66.6489 54.7455 72.0187 49.3804 80.4108 49.3804C86.3854 49.3804 90.6806 51.4596 93.7759 56.9041L86.4584 61.6024C84.8472 58.7136 83.1091 57.5755 80.4108 57.5755C77.6584 57.5755 75.914 59.3215 75.914 61.6024C75.914 64.4215 77.6601 65.5628 81.6918 67.3089L84.041 68.3153C92.0252 71.7391 96.5331 75.2294 96.5331 83.0772C96.5331 91.5375 89.8871 96.1725 80.9616 96.1725C72.2346 96.1725 66.5965 92.0136 63.8378 86.5628L71.4742 82.1264ZM38.2791 82.9406C39.7552 85.5596 41.0982 87.774 44.3267 87.774C47.414 87.774 49.3616 86.566 49.3616 81.8692V49.9168H58.7584V81.9962C58.7584 91.7264 53.0537 96.1549 44.7267 96.1549C37.2029 96.1549 32.8457 92.2613 30.6299 87.5715L38.2791 82.9406Z" fill="#999999"/>
</svg>
