<svg width="111" height="100" viewBox="0 0 111 100" fill="none" xmlns="http://www.w3.org/2000/svg">
<path d="M0.327148 49.8914C0.327148 58.2455 8.46244 66.0443 21.2884 70.4402C18.7272 83.3696 20.8294 93.7907 27.851 97.8513C35.0685 102.025 45.8208 99.1359 56.0261 90.1908C65.974 98.7748 76.0281 102.153 83.0432 98.0808C90.2536 93.8952 92.4469 82.7674 89.8148 69.4344C103.174 65.0055 110.646 58.3554 110.646 49.8914C110.646 41.731 102.496 34.6712 89.843 30.3034C92.6765 16.4194 90.2756 6.25125 82.9633 2.02291C75.9135 -2.05347 65.7427 1.49951 55.6485 10.3083C45.1472 0.958466 35.0768 -1.89617 27.7716 2.34449C20.7287 6.43247 18.7189 17.0429 21.2884 30.2117C8.89553 34.5444 0.327148 41.7637 0.327148 49.8914Z" fill="white"/>
<path d="M87.1631 34.6409C86.1468 34.2901 85.0936 33.9582 84.0092 33.6444C84.1875 32.915 84.3511 32.195 84.4965 31.4873C86.8839 19.8667 85.3229 10.5051 79.9927 7.42287C74.8816 4.4674 66.5229 7.54895 58.0809 14.9158C57.2691 15.6242 56.4551 16.3743 55.6414 17.1603C55.0992 16.6402 54.5579 16.1377 54.018 15.6569C45.1706 7.77977 36.3024 4.46023 30.9774 7.5514C25.8712 10.5154 24.3591 19.3163 26.5081 30.3292C26.7156 31.3929 26.9582 32.4792 27.2325 33.5837C25.9774 33.9409 24.7658 34.3218 23.6064 34.727C13.2338 38.3532 6.60938 44.0365 6.60938 49.9315C6.60938 56.0199 13.7207 62.1267 24.5246 65.8296C25.3772 66.1218 26.2619 66.3981 27.1736 66.6604C26.8776 67.8549 26.6202 69.0255 26.4042 70.1672C24.3551 80.989 25.9553 89.5819 31.0479 92.5272C36.308 95.5689 45.1361 92.4424 53.7323 84.9077C54.4118 84.312 55.0936 83.6804 55.7767 83.0184C56.6621 83.8733 57.5461 84.6824 58.4254 85.4414C66.7518 92.6262 74.9756 95.5275 80.0635 92.5739C85.3184 89.5235 87.0262 80.2927 84.809 69.0619C84.6397 68.2041 84.4426 67.3279 84.2213 66.436C84.8413 66.2522 85.4499 66.0625 86.0433 65.8653C97.275 62.1337 104.583 56.1013 104.583 49.9315C104.583 44.0152 97.7446 38.2936 87.1631 34.6409Z" fill="#999999"/>
<path d="M84.7264 61.8815C84.1907 62.0594 83.641 62.2313 83.0808 62.3979C81.8409 58.4618 80.1675 54.2763 78.1196 49.952C80.0738 45.7306 81.6826 41.5986 82.8878 37.688C83.89 37.9788 84.8628 38.2855 85.8001 38.6092C94.8664 41.7389 100.397 46.3661 100.397 49.9315C100.397 53.7293 94.4241 58.6594 84.7264 61.8815ZM80.7025 69.8769C81.6829 74.843 81.823 79.333 81.1735 82.843C80.59 85.9969 79.4165 88.0997 77.9656 88.9419C74.878 90.7339 68.2752 88.4045 61.1543 82.26C60.338 81.5556 59.5157 80.8035 58.6908 80.0075C61.4514 76.9799 64.2105 73.4604 66.9033 69.5515C71.6396 69.1301 76.1143 68.4411 80.1722 67.5005C80.372 68.3089 80.5496 69.1017 80.7025 69.8769ZM40.01 88.6322C36.9934 89.7005 34.5908 89.7311 33.1385 88.8913C30.0481 87.104 28.7634 80.2047 30.5158 70.9499C30.7166 69.89 30.9555 68.8013 31.2308 67.6884C35.2443 68.5783 39.6862 69.2187 44.4338 69.6047C47.1447 73.4296 49.9835 76.9453 52.8442 80.0237C52.2192 80.6288 51.5966 81.2048 50.9775 81.7476C47.1763 85.0794 43.3671 87.4433 40.01 88.6322ZM25.8776 61.8583C21.1003 60.221 17.155 58.093 14.4508 55.7709C12.0208 53.6842 10.7939 51.6125 10.7939 49.9315C10.7939 46.3542 16.1127 41.7913 24.9835 38.69C26.0598 38.3137 27.1865 37.9591 28.3558 37.6259C29.5818 41.6249 31.19 45.8058 33.1308 50.0336C31.1649 54.3242 29.5338 58.5718 28.2958 62.6176C27.4623 62.3773 26.6546 62.1244 25.8776 61.8583ZM30.6149 29.5232C28.7737 20.0876 29.9965 12.9697 33.0736 11.1836C36.3513 9.28084 43.5992 11.9938 51.2382 18.7953C51.7265 19.23 52.2167 19.685 52.7083 20.1558C49.8618 23.2207 47.049 26.7101 44.3622 30.5124C39.7544 30.9407 35.3437 31.6286 31.2884 32.5498C31.0334 31.5214 30.8076 30.511 30.6149 29.5232ZM72.8762 39.9872C71.9067 38.3081 70.9115 36.6687 69.8969 35.0741C73.0228 35.4703 76.0178 35.9963 78.8304 36.64C77.986 39.3537 76.9335 42.1909 75.6947 45.0995C74.806 43.4076 73.866 41.7018 72.8762 39.9872ZM55.6421 23.1551C57.5726 25.2524 59.5059 27.5939 61.4075 30.1344C59.4913 30.0436 57.5514 29.9964 55.5954 29.9964C53.6579 29.9964 51.7323 30.0426 49.8279 30.1317C51.7314 27.6148 53.6814 25.2765 55.6421 23.1551ZM38.2977 40.0162C37.3293 41.7 36.4068 43.3966 35.532 45.0964C34.3132 42.1979 33.2705 39.3477 32.4188 36.5956C35.2141 35.9684 38.195 35.4555 41.3011 35.0667C40.2722 36.6761 39.2687 38.3275 38.2977 40.0159V40.0162ZM41.3905 65.0956C38.1814 64.7366 35.1557 64.2502 32.3611 63.6402C33.2264 60.839 34.2921 57.9279 35.5367 54.967C36.4138 56.6655 37.3399 58.3628 38.3143 60.0503H38.3144C39.3069 61.7695 40.3351 63.4535 41.3905 65.0956ZM55.7579 77.0037C53.7742 74.8576 51.7956 72.4835 49.8632 69.9299C51.7391 70.0037 53.6516 70.0415 55.5954 70.0415C57.5923 70.0415 59.5665 69.9964 61.5095 69.9096C59.6017 72.5092 57.6754 74.8869 55.7579 77.0037ZM75.7346 54.8161C77.0441 57.809 78.148 60.7049 79.0245 63.4583C76.1838 64.1082 73.1168 64.6315 69.8854 65.0205C70.9024 63.4043 71.9064 61.7368 72.8929 60.0215C73.8909 58.2861 74.8386 56.548 75.7346 54.8161ZM69.2675 57.9248C67.736 60.5875 66.1637 63.1294 64.5675 65.5288C61.6602 65.7372 58.6567 65.8446 55.5954 65.8446C52.5465 65.8446 49.5808 65.7497 46.725 65.5638C45.0644 63.1329 43.4579 60.5835 41.9362 57.9477H41.9365C40.4188 55.3191 39.0219 52.6682 37.7562 50.0322C39.0216 47.3901 40.4148 44.7363 41.9238 42.1124L41.9235 42.1129C43.4365 39.482 45.0289 36.945 46.6741 34.5294C49.5878 34.3085 52.5756 34.1933 55.5952 34.1933H55.5954C58.6286 34.1933 61.6203 34.3094 64.5331 34.5322C66.1532 36.9301 67.7348 39.4589 69.2537 42.0902C70.7899 44.751 72.2011 47.3871 73.4773 49.9726C72.2049 52.6025 70.7969 55.2652 69.2675 57.9248ZM77.9014 11.0587C81.1822 12.9559 82.4581 20.6071 80.3968 30.6403C80.2653 31.2805 80.1172 31.9325 79.9565 32.5934C75.8917 31.6529 71.4779 30.9531 66.8567 30.5184C64.1646 26.6742 61.3749 23.1795 58.5747 20.1539C59.3275 19.4276 60.0793 18.7351 60.828 18.0817C68.061 11.7698 74.8213 9.27769 77.9014 11.0587Z" fill="white"/>
<path d="M55.5963 41.1588C60.428 41.1588 64.345 45.0864 64.345 49.9315C64.345 54.7764 60.428 58.7042 55.5963 58.7042C50.7647 58.7042 46.8477 54.7764 46.8477 49.9315C46.8477 45.0864 50.7647 41.1588 55.5963 41.1588Z" fill="#999999"/>
</svg>
