<svg width="84" height="100" viewBox="0 0 84 100" fill="none" xmlns="http://www.w3.org/2000/svg">
<g clip-path="url(#clip0)">
<path d="M77.8571 13.2165C68.5771 -0.0590547 50.2491 -3.99397 36.9971 4.44514L13.7233 19.2713C7.36597 23.2688 2.98713 29.7577 1.66055 37.1468C0.550338 43.3023 1.52615 49.6521 4.43348 55.1909C2.4413 58.2114 1.08255 61.6043 0.439337 65.1645C-0.900067 72.6955 0.852002 80.4482 5.3 86.6725C14.582 99.9493 32.91 103.883 46.16 95.4439L69.4338 80.6177C75.7916 76.6207 80.1706 70.1315 81.4965 62.7422C82.6066 56.5868 81.6316 50.2371 78.7257 44.6977C80.7173 41.6772 82.0755 38.2845 82.7181 34.7245C84.0584 27.1935 82.3063 19.4404 77.8574 13.2165" fill="#999999"/>
<path d="M34.7217 87.9355C27.2175 89.8858 19.2929 86.9498 14.8735 80.582C12.1973 76.838 11.143 72.1742 11.9489 67.6439C12.084 66.9076 12.2698 66.1816 12.5052 65.4709L12.9436 64.1347L14.1364 65.0103C16.8909 67.0333 19.9708 68.5714 23.2433 69.5582L24.1085 69.8206L24.0288 70.6837C23.9231 71.9117 24.2558 73.1373 24.9678 74.1435C26.2978 76.0616 28.6838 76.9468 30.9438 76.3605C31.4497 76.2253 31.932 76.0135 32.3737 75.7323L55.655 60.9035C56.8068 60.1786 57.6006 59.003 57.8424 57.6642C58.0837 56.2987 57.7661 54.8936 56.9609 53.7645C55.6302 51.846 53.2436 50.9605 50.9827 51.5463C50.4774 51.6815 49.9958 51.8932 49.5546 52.174L40.6706 57.8345C39.2098 58.7629 37.6155 59.4626 35.9431 59.9095C28.439 61.8596 20.5146 58.9237 16.0952 52.5559C13.4189 48.812 12.3647 44.1482 13.1706 39.6179C13.9684 35.1733 16.6027 31.2703 20.4272 28.8666L43.7064 14.0365C45.1679 13.1066 46.7633 12.406 48.4371 11.959C55.9411 10.0089 63.8655 12.9448 68.2849 19.3125C70.9611 23.0565 72.0153 27.7203 71.2095 32.2506C71.0738 32.9867 70.888 33.7128 70.6532 34.4236L70.2147 35.7598L69.0226 34.8855C66.2683 32.8614 63.1881 31.3226 59.9151 30.3356L59.0498 30.0732L59.1295 29.21C59.2343 27.9822 58.9018 26.7569 58.1906 25.7504C56.8606 23.8322 54.4746 22.9471 52.2146 23.5334C51.7086 23.6686 51.2264 23.8804 50.7846 24.1616L27.5033 38.991C26.3517 39.7153 25.5583 40.8908 25.3177 42.2294C25.0749 43.5948 25.392 45.0004 26.1974 46.1296C27.5282 48.048 29.9148 48.9335 32.1757 48.3477C32.6815 48.2123 33.1637 48.0005 33.6056 47.7196L42.4884 42.0613C43.9486 41.1317 45.5427 40.4313 47.2153 39.9846C54.7194 38.0344 62.6439 40.9704 67.0632 47.3381C69.7396 51.0821 70.7938 55.7459 69.9878 60.2762C69.1895 64.721 66.5554 68.6243 62.7312 71.0292L39.4519 85.858C37.9904 86.7879 36.3951 87.4885 34.7213 87.9355" fill="white"/>
</g>
<defs>
<clipPath id="clip0">
<rect width="83.1579" height="100" fill="white"/>
</clipPath>
</defs>
</svg>
