<svg width="108" height="108" viewBox="0 0 108 108" fill="none" xmlns="http://www.w3.org/2000/svg">
<path d="M2 104V106H4H104H106V104V4V2H104H54H4H2V4V54V104Z" fill="#999999" stroke="white" stroke-width="4"/>
<path d="M26.1148 54.3314L26.083 58.4265H39.0989V95.4106H43.7021H48.3052V76.9185V58.4265H54.8131H61.321V54.4106C61.321 52.1883 61.2734 50.3314 61.2101 50.2837C61.1624 50.2201 53.2418 50.1883 43.6386 50.2043L26.1624 50.2519L26.1148 54.3314Z" fill="white"/>
<path d="M84.6897 50.1365C87.2297 50.7713 89.1661 51.8984 90.944 53.7395C91.8641 54.7237 93.2297 56.5174 93.3405 56.9458C93.3725 57.0729 89.0233 59.9935 86.3883 61.6286C86.2926 61.6919 85.9119 61.2792 85.4833 60.6445C84.1976 58.7713 82.8483 57.9617 80.7848 57.819C77.7533 57.6127 75.8005 59.1998 75.8168 61.8508C75.8168 62.6286 75.9276 63.0889 76.2454 63.7237C76.9119 65.1045 78.1498 65.9301 82.039 67.6129C89.1976 70.6916 92.2612 72.7237 94.1661 75.6129C96.2926 78.8351 96.769 83.9773 95.3247 87.803C93.7375 91.9616 89.8005 94.7873 84.2612 95.7237C82.5469 96.0252 78.4833 95.9779 76.6419 95.6444C72.6262 94.9301 68.8168 92.9459 66.4676 90.343C65.5469 89.3266 63.7533 86.6759 63.8643 86.4858C63.912 86.4223 64.3246 86.168 64.7848 85.8987C65.2297 85.6444 66.9119 84.6765 68.4996 83.7552L71.3725 82.0887L71.9754 82.9773C72.8168 84.2637 74.6582 86.0252 75.769 86.6129C78.9597 88.2951 83.3405 88.0572 85.4997 86.1208C86.4197 85.2794 86.8005 84.4065 86.8005 83.1208C86.8005 81.9616 86.6582 81.4537 86.0547 80.5809C85.2769 79.4695 83.6897 78.533 79.1819 76.5809C74.0227 74.3587 71.8005 72.9773 69.769 70.7873C68.5947 69.5173 67.4833 67.4858 67.0226 65.7873C66.6419 64.3746 66.5469 60.8349 66.8483 59.4063C67.9119 54.4223 71.674 50.9458 77.1026 49.9143C78.8641 49.5809 82.9597 49.7077 84.6897 50.1365Z" fill="white"/>
</svg>
