<svg width="107" height="106" viewBox="0 0 107 106" fill="none" xmlns="http://www.w3.org/2000/svg">
<path d="M53.6293 1.5C25.2314 1.5 2.12891 24.6008 2.12891 52.9988C2.12891 81.4 25.2314 104.5 53.6293 104.5C82.0263 104.5 105.132 81.4001 105.132 52.9988C105.131 24.6007 82.0263 1.5 53.6293 1.5Z" fill="white" stroke="white" stroke-width="3"/>
<path d="M10.7363 52.9981C10.7363 69.9761 20.603 84.6484 34.9106 91.6014L14.4499 35.5417C12.07 40.8763 10.7363 46.7796 10.7363 52.9981Z" fill="#999999"/>
<path d="M82.5854 50.8336C82.5854 45.5326 80.6813 41.8614 79.0481 39.004C76.8738 35.4708 74.8358 32.4787 74.8358 28.9455C74.8358 25.0025 77.8263 21.3322 82.0386 21.3322C82.2287 21.3322 82.4091 21.3559 82.5944 21.3665C74.9631 14.3752 64.7961 10.1066 53.6292 10.1066C38.6442 10.1066 25.4606 17.7949 17.791 29.4401C18.7974 29.4703 19.7458 29.4915 20.5513 29.4915C25.0378 29.4915 31.9826 28.9471 31.9826 28.9471C34.2949 28.8108 34.5675 32.2069 32.2577 32.4803C32.2577 32.4803 29.934 32.7537 27.3484 32.8892L42.9683 79.3499L52.3551 51.1976L45.6723 32.8876C43.3625 32.7521 41.1744 32.4787 41.1744 32.4787C38.863 32.3432 39.1339 28.8092 41.4454 28.9455C41.4454 28.9455 48.5289 29.4899 52.7436 29.4899C57.2293 29.4899 64.175 28.9455 64.175 28.9455C66.4888 28.8092 66.7606 32.2053 64.45 32.4787C64.45 32.4787 62.1215 32.7521 59.5407 32.8876L75.0415 78.9965L79.3199 64.6996C81.1742 58.7668 82.5854 54.5056 82.5854 50.8336Z" fill="#999999"/>
<path d="M54.3821 56.7511L41.5127 94.1473C45.3552 95.2769 49.419 95.8948 53.6296 95.8948C58.6246 95.8948 63.4147 95.0313 67.8735 93.4634C67.7584 93.2797 67.6539 93.0847 67.5682 92.8725L54.3821 56.7511Z" fill="#999999"/>
<path d="M91.2669 32.4204C91.4514 33.7867 91.5558 35.2533 91.5558 36.831C91.5558 41.1837 90.7429 46.0766 88.2944 52.1947L75.1924 90.0757C87.9443 82.6395 96.5214 68.8242 96.5214 53.0002C96.5223 45.5428 94.6173 38.5303 91.2669 32.4204Z" fill="#999999"/>
<path d="M53.6293 3C26.0598 3 3.62891 25.4293 3.62891 52.9988C3.62891 80.5716 26.0598 103 53.6293 103C81.198 103 103.632 80.5716 103.632 52.9988C103.631 25.4293 81.198 3 53.6293 3ZM53.6293 100.708C27.324 100.708 5.92154 79.3057 5.92154 52.9988C5.92154 26.6935 27.3232 5.29263 53.6293 5.29263C79.9338 5.29263 101.335 26.6935 101.335 52.9988C101.335 79.3057 79.9338 100.708 53.6293 100.708Z" fill="#999999"/>
</svg>
